<svg width="233" height="48" viewBox="0 0 233 48" fill="none" xmlns="http://www.w3.org/2000/svg">
<rect width="233" height="48" rx="20" fill="#EC5252"/>
<path d="M67.95 23.95H65.15V31H61.125V13.5H65.15V20.575H68.05L72.65 13.5H76.925L71.2 21.95L77.1 31H72.5L67.95 23.95ZM84.802 31.2C83.3853 31.2 82.1103 30.9083 80.977 30.325C79.8603 29.725 78.9853 28.9 78.352 27.85C77.7186 26.8 77.402 25.6083 77.402 24.275C77.402 22.9417 77.7186 21.75 78.352 20.7C78.9853 19.65 79.8603 18.8333 80.977 18.25C82.1103 17.65 83.3853 17.35 84.802 17.35C86.2186 17.35 87.4853 17.65 88.602 18.25C89.7186 18.8333 90.5936 19.65 91.227 20.7C91.8603 21.75 92.177 22.9417 92.177 24.275C92.177 25.6083 91.8603 26.8 91.227 27.85C90.5936 28.9 89.7186 29.725 88.602 30.325C87.4853 30.9083 86.2186 31.2 84.802 31.2ZM84.802 28C85.802 28 86.6186 27.6667 87.252 27C87.902 26.3167 88.227 25.4083 88.227 24.275C88.227 23.1417 87.902 22.2417 87.252 21.575C86.6186 20.8917 85.802 20.55 84.802 20.55C83.802 20.55 82.977 20.8917 82.327 21.575C81.677 22.2417 81.352 23.1417 81.352 24.275C81.352 25.4083 81.677 26.3167 82.327 27C82.977 27.6667 83.802 28 84.802 28ZM102.784 17.35C104.034 17.35 105.168 17.6417 106.184 18.225C107.218 18.7917 108.026 19.6 108.609 20.65C109.193 21.6833 109.484 22.8917 109.484 24.275C109.484 25.6583 109.193 26.875 108.609 27.925C108.026 28.9583 107.218 29.7667 106.184 30.35C105.168 30.9167 104.034 31.2 102.784 31.2C101.068 31.2 99.7177 30.6583 98.7344 29.575V35.85H94.8344V17.55H98.5594V19.1C99.526 17.9333 100.934 17.35 102.784 17.35ZM102.109 28C103.109 28 103.926 27.6667 104.559 27C105.209 26.3167 105.534 25.4083 105.534 24.275C105.534 23.1417 105.209 22.2417 104.559 21.575C103.926 20.8917 103.109 20.55 102.109 20.55C101.109 20.55 100.284 20.8917 99.6344 21.575C99.001 22.2417 98.6844 23.1417 98.6844 24.275C98.6844 25.4083 99.001 26.3167 99.6344 27C100.284 27.6667 101.109 28 102.109 28ZM120.699 24C121.499 24.25 122.115 24.6333 122.549 25.15C122.999 25.6667 123.224 26.2833 123.224 27C123.224 27.85 122.932 28.6 122.349 29.25C121.765 29.8833 120.965 30.375 119.949 30.725C118.932 31.075 117.782 31.25 116.499 31.25C115.449 31.25 114.415 31.1417 113.399 30.925C112.382 30.7083 111.44 30.3833 110.574 29.95L111.624 27.225C113.04 27.9083 114.607 28.25 116.324 28.25C117.24 28.25 117.957 28.1167 118.474 27.85C119.007 27.5667 119.274 27.175 119.274 26.675C119.274 26.2417 119.09 25.9167 118.724 25.7C118.357 25.4667 117.824 25.35 117.124 25.35H114.374V22.925H116.774C117.457 22.925 117.982 22.8167 118.349 22.6C118.715 22.3833 118.899 22.0667 118.899 21.65C118.899 21.2167 118.665 20.8833 118.199 20.65C117.749 20.4167 117.099 20.3 116.249 20.3C114.949 20.3 113.532 20.6083 111.999 21.225L111.049 18.525C112.915 17.7083 114.732 17.3 116.499 17.3C117.715 17.3 118.799 17.45 119.749 17.75C120.715 18.05 121.474 18.4917 122.024 19.075C122.574 19.6417 122.849 20.3083 122.849 21.075C122.849 21.7083 122.657 22.2833 122.274 22.8C121.89 23.3 121.365 23.7 120.699 24ZM126.061 17.55H129.936V25.55L136.486 17.55H140.061V31H136.186V23L129.661 31H126.061V17.55ZM143.81 17.55H147.685V22.8H153.535V17.55H157.435V31H153.535V25.975H147.685V31H143.81V17.55ZM166.393 17.35C168.476 17.35 170.076 17.85 171.193 18.85C172.31 19.8333 172.868 21.325 172.868 23.325V31H169.218V29.325C168.485 30.575 167.118 31.2 165.118 31.2C164.085 31.2 163.185 31.025 162.418 30.675C161.668 30.325 161.093 29.8417 160.693 29.225C160.293 28.6083 160.093 27.9083 160.093 27.125C160.093 25.875 160.56 24.8917 161.493 24.175C162.443 23.4583 163.901 23.1 165.868 23.1H168.968C168.968 22.25 168.71 21.6 168.193 21.15C167.676 20.6833 166.901 20.45 165.868 20.45C165.151 20.45 164.443 20.5667 163.743 20.8C163.06 21.0167 162.476 21.3167 161.993 21.7L160.593 18.975C161.326 18.4583 162.201 18.0583 163.218 17.775C164.251 17.4917 165.31 17.35 166.393 17.35ZM166.093 28.575C166.76 28.575 167.351 28.425 167.868 28.125C168.385 27.8083 168.751 27.35 168.968 26.75V25.375H166.293C164.693 25.375 163.893 25.9 163.893 26.95C163.893 27.45 164.085 27.85 164.468 28.15C164.868 28.4333 165.41 28.575 166.093 28.575Z" fill="white"/>
</svg>
