<svg width="118" height="111" viewBox="0 0 118 111" fill="none" xmlns="http://www.w3.org/2000/svg">
<g filter="url(#filter0_d)">
<rect x="10" y="6" width="98" height="91" rx="20" fill="white"/>
</g>
<path d="M57.6545 75.1744C55.4326 73.3913 34.8001 53.3269 34.5695 53.1075C33.6582 52.1962 33.0845 51.2512 32.927 50.385C32.7638 49.485 33.0395 48.6975 33.7707 47.9662C34.4513 47.2856 35.2838 46.9256 36.1782 46.9256C37.2695 46.9256 38.3888 47.4431 39.3226 48.3825L48.677 57.3713C48.8401 57.5288 49.0538 57.6075 49.262 57.6075C49.4276 57.6079 49.5897 57.5593 49.7278 57.4678C49.866 57.3763 49.974 57.246 50.0383 57.0934C50.1026 56.9407 50.1203 56.7724 50.0893 56.6097C50.0583 56.447 49.9798 56.297 49.8638 56.1787L34.9295 40.755C33.4332 39.2587 32.7301 36.9694 34.5076 35.1919C35.1882 34.5112 36.0207 34.1512 36.9151 34.1512C38.0063 34.1512 39.1257 34.6687 40.0595 35.6081L55.337 50.5031C55.5001 50.6606 55.7138 50.745 55.9276 50.745C56.1413 50.745 56.3607 50.6606 56.5238 50.4975C56.8501 50.1712 56.8557 49.6425 56.5295 49.3106L38.1807 30.5006C37.3313 29.6513 36.8195 28.6331 36.7295 27.6431C36.6451 26.6363 36.9995 25.7025 37.7588 24.9431C38.4395 24.2625 39.272 23.9025 40.1663 23.9025C41.2576 23.9025 42.377 24.42 43.3107 25.3538L62.0251 43.6012C62.1882 43.7588 62.402 43.8431 62.6157 43.8431C62.8295 43.8431 63.0488 43.7587 63.212 43.5956C63.5382 43.2694 63.5438 42.7406 63.2176 42.4087L49.6276 28.4419C48.7726 27.5869 48.2607 26.5744 48.1763 25.5844C48.092 24.5775 48.4463 23.6437 49.2057 22.8844C49.8863 22.2037 50.7188 21.8438 51.6132 21.8438C52.7045 21.8438 53.8238 22.3613 54.7576 23.3006C59.7413 28.1944 72.752 40.9912 73.1907 41.4637C74.8613 42.6169 75.1988 40.8731 75.2832 39.7425C75.3788 38.4263 73.8713 33.8306 74.7488 29.6962C76.2226 24.2006 80.4695 25.1006 80.5651 25.1456C82.8938 26.2369 82.4495 27.8681 81.6226 31.1475L81.5382 31.7944C80.672 36.0806 86.6232 48.7819 87.062 49.7325C89.3963 54.84 92.0851 65.1956 83.1807 74.1C73.4213 83.8594 61.3388 78.8588 57.6545 75.1744Z" fill="url(#paint0_radial)"/>
<path d="M70.1757 80.6531C64.1907 80.6531 59.1001 77.79 57.0919 75.8044C55.2863 74.3306 43.8901 63.3281 34.6088 54.3225C34.2319 53.9569 34.0126 53.7488 33.9901 53.7206C32.9382 52.6688 32.2857 51.5719 32.1001 50.5369C31.8863 49.3612 32.2519 48.2981 33.1744 47.37C34.0182 46.5262 35.0532 46.0819 36.1782 46.0819C37.5001 46.0819 38.8276 46.6894 39.9188 47.7862L49.2619 56.7637L34.3219 41.34C32.6007 39.6187 31.7344 36.7669 33.9113 34.5956C34.7551 33.7519 35.7901 33.3075 36.9151 33.3075C38.2369 33.3075 39.5644 33.915 40.6557 35.0119L55.9219 49.8956L37.5788 31.0912C36.6001 30.1125 35.9982 28.9144 35.8913 27.7219C35.7844 26.4506 36.2232 25.2862 37.1626 24.3469C38.0063 23.5031 39.0413 23.0587 40.1663 23.0587C41.4826 23.0587 42.8101 23.6606 43.9069 24.7575L62.6157 42.9994L49.0257 29.0325C48.0413 28.0481 47.4394 26.85 47.3382 25.6575C47.2313 24.3919 47.6701 23.2275 48.6094 22.2881C49.4532 21.4444 50.4882 21 51.6132 21C52.9351 21 54.2626 21.6075 55.3538 22.7044L59.4094 26.6812C66.6376 33.7688 72.6788 39.7031 73.3257 40.3669C73.6407 40.62 74.0513 40.7156 74.2257 40.6312C74.3382 40.575 74.4619 40.3162 74.4394 39.7706C74.4057 38.8144 74.2707 37.6275 74.1301 36.3731C73.8488 33.8531 73.5563 31.2431 73.9219 29.5219C74.7207 26.535 76.2901 25.2694 77.4601 24.7237C79.0688 23.9812 80.6269 24.24 80.9251 24.3806C83.8501 25.7531 83.2707 28.0481 82.4719 31.2319L82.4551 31.3106L82.3651 31.9688C81.7801 34.8488 84.7838 42.8081 87.7876 49.2937L87.8326 49.3837C89.8407 53.7712 93.4576 65.0269 83.7826 74.7019C79.3332 79.14 74.5182 80.6531 70.1757 80.6531ZM36.1782 47.7694C35.5144 47.7694 34.8844 48.045 34.3669 48.5625C33.8326 49.0969 33.6469 49.6144 33.7594 50.2331C33.8832 50.9137 34.3838 51.7238 35.1657 52.5112C35.1713 52.5169 35.3963 52.7362 35.7844 53.1075C48.9582 65.8931 56.9119 73.4925 58.1832 74.5163L58.2507 74.5781C61.3557 77.6831 72.8926 83.1956 82.5844 73.5038C91.5113 64.5769 88.1532 54.1538 86.2913 50.0813L86.2519 49.9969C84.3169 45.8231 79.9182 35.6981 80.7001 31.6594L80.8294 30.8156C81.6957 27.3731 81.7463 26.6531 80.2782 25.9444C79.8451 25.8656 76.7401 25.4887 75.5532 29.9156C75.2551 31.3275 75.5419 33.9094 75.7951 36.1875C75.9413 37.4756 76.0763 38.6963 76.1101 39.7144C76.1663 41.3175 75.4069 41.9306 74.9457 42.1556C74.0063 42.6112 72.8869 42.2231 72.1894 41.6381L72.1163 41.5706C71.7732 41.1994 63.6113 33.195 58.2113 27.8962L54.1501 23.9081C52.7663 22.5187 50.9832 22.2881 49.7851 23.4862C49.2001 24.0712 48.9357 24.7575 48.9976 25.5169C49.0651 26.31 49.4926 27.1369 50.2069 27.8512L63.8251 41.8181C64.1345 42.1364 64.3067 42.5634 64.3046 43.0073C64.3025 43.4512 64.1263 43.8766 63.8138 44.1919C63.1894 44.8162 62.0869 44.8275 61.4457 44.2087L42.7201 25.9556C41.3363 24.5719 39.5476 24.3413 38.3551 25.5394C37.7701 26.1244 37.5057 26.8106 37.5676 27.57C37.6407 28.3631 38.0682 29.1956 38.7769 29.8988L57.1313 48.72C57.7782 49.3725 57.7726 50.4412 57.1201 51.0937C56.4957 51.7181 55.3932 51.7294 54.7519 51.1106L39.4688 36.21C38.0851 34.815 36.2963 34.59 35.1038 35.7881C33.6469 37.245 34.4232 39.0506 35.5257 40.1587L50.4713 55.5937C50.7799 55.9106 50.9512 56.3362 50.948 56.7785C50.9448 57.2207 50.7675 57.6439 50.4544 57.9563C49.8244 58.5863 48.7332 58.5919 48.0919 57.9788L38.7376 48.99C37.9501 48.1969 37.0444 47.7694 36.1782 47.7694Z" fill="#875334"/>
<path d="M28.0108 58.2431C28.8039 59.7956 29.6308 61.2356 30.5926 62.5069C31.5489 63.7781 32.6458 64.8581 33.9226 65.5612C34.5414 65.9044 35.2783 66.2025 35.9983 66.4275C36.7239 66.6581 37.4776 66.8156 38.2539 66.9225C39.8064 67.1137 41.4376 67.08 43.1645 66.8156C41.8258 67.98 40.037 68.5987 38.2145 68.7337C36.3695 68.8575 34.4964 68.4581 32.8201 67.5131C31.1326 66.5512 29.8951 65.0212 29.1189 63.3956C28.3426 61.7587 27.9264 59.9981 28.0108 58.2431Z" fill="#B0BEC5"/>
<path d="M33.3264 57.585C33.872 58.53 34.412 59.2894 35.0026 59.9531C35.5876 60.6169 36.2176 61.1625 36.9039 61.6575C37.6014 62.1356 38.3664 62.5575 39.1989 62.9794C39.6151 63.1931 40.0595 63.3619 40.4983 63.6094C40.9539 63.8062 41.4151 64.0144 41.8989 64.3125C41.387 64.5037 40.8639 64.6162 40.3295 64.7006C39.8008 64.7231 39.2551 64.7512 38.7151 64.6781C37.6351 64.5319 36.5551 64.155 35.6101 63.4969C34.682 62.8275 33.9114 61.8994 33.4895 60.8475C33.062 59.8012 32.9383 58.6312 33.3264 57.585Z" fill="#90A4AE"/>
<defs>
<filter id="filter0_d" x="0" y="0" width="118" height="111" filterUnits="userSpaceOnUse" color-interpolation-filters="sRGB">
<feFlood flood-opacity="0" result="BackgroundImageFix"/>
<feColorMatrix in="SourceAlpha" type="matrix" values="0 0 0 0 0 0 0 0 0 0 0 0 0 0 0 0 0 0 127 0" result="hardAlpha"/>
<feOffset dy="4"/>
<feGaussianBlur stdDeviation="5"/>
<feComposite in2="hardAlpha" operator="out"/>
<feColorMatrix type="matrix" values="0 0 0 0 0.8 0 0 0 0 0.353333 0 0 0 0 0.353333 0 0 0 0.1 0"/>
<feBlend mode="normal" in2="BackgroundImageFix" result="effect1_dropShadow"/>
<feBlend mode="normal" in="SourceGraphic" in2="effect1_dropShadow" result="shape"/>
</filter>
<radialGradient id="paint0_radial" cx="0" cy="0" r="1" gradientUnits="userSpaceOnUse" gradientTransform="translate(48.945 36.1147) rotate(-45) scale(51.192)">
<stop offset="0.353" stop-color="#A56C43"/>
<stop offset="0.872" stop-color="#8D5738"/>
</radialGradient>
</defs>
</svg>
