<svg width="198" height="62" viewBox="0 0 198 62" fill="none" xmlns="http://www.w3.org/2000/svg">
<rect width="198" height="62" rx="30" fill="#EC5252"/>
<path d="M59.6605 23.36V28.9H56.6605V26H46.7805V28.9H43.7805L43.8005 23.36H44.3605C45.2005 23.3333 45.7938 22.72 46.1405 21.52C46.4871 20.32 46.7005 18.6067 46.7805 16.38L46.9405 12H57.7005V23.36H59.6605ZM49.6405 16.68C49.5738 18.3467 49.4338 19.7467 49.2205 20.88C49.0071 22 48.6805 22.8267 48.2405 23.36H54.5005V14.64H49.7005L49.6405 16.68ZM66.5048 26.16C65.3715 26.16 64.3515 25.9267 63.4448 25.46C62.5515 24.98 61.8515 24.32 61.3448 23.48C60.8382 22.64 60.5848 21.6867 60.5848 20.62C60.5848 19.5533 60.8382 18.6 61.3448 17.76C61.8515 16.92 62.5515 16.2667 63.4448 15.8C64.3515 15.32 65.3715 15.08 66.5048 15.08C67.6382 15.08 68.6515 15.32 69.5448 15.8C70.4382 16.2667 71.1382 16.92 71.6448 17.76C72.1515 18.6 72.4048 19.5533 72.4048 20.62C72.4048 21.6867 72.1515 22.64 71.6448 23.48C71.1382 24.32 70.4382 24.98 69.5448 25.46C68.6515 25.9267 67.6382 26.16 66.5048 26.16ZM66.5048 23.6C67.3048 23.6 67.9582 23.3333 68.4648 22.8C68.9848 22.2533 69.2448 21.5267 69.2448 20.62C69.2448 19.7133 68.9848 18.9933 68.4648 18.46C67.9582 17.9133 67.3048 17.64 66.5048 17.64C65.7048 17.64 65.0448 17.9133 64.5248 18.46C64.0048 18.9933 63.7448 19.7133 63.7448 20.62C63.7448 21.5267 64.0048 22.2533 64.5248 22.8C65.0448 23.3333 65.7048 23.6 66.5048 23.6ZM80.7708 15.98C81.7974 15.98 82.6974 16.1933 83.4708 16.62C84.2441 17.0333 84.8374 17.62 85.2508 18.38C85.6774 19.14 85.8908 20.02 85.8908 21.02C85.8908 22.0467 85.6374 22.96 85.1308 23.76C84.6374 24.5467 83.9441 25.16 83.0508 25.6C82.1574 26.0267 81.1441 26.24 80.0108 26.24C78.1308 26.24 76.6508 25.64 75.5708 24.44C74.5041 23.2267 73.9708 21.4533 73.9708 19.12C73.9708 16.96 74.4374 15.24 75.3708 13.96C76.3174 12.6667 77.7641 11.82 79.7108 11.42L84.8308 10.4L85.2508 13.08L80.7308 13.98C79.5041 14.22 78.5908 14.62 77.9908 15.18C77.4041 15.74 77.0574 16.5333 76.9508 17.56C77.4174 17.0533 77.9774 16.6667 78.6308 16.4C79.2841 16.12 79.9974 15.98 80.7708 15.98ZM80.0308 23.82C80.8308 23.82 81.4708 23.56 81.9508 23.04C82.4441 22.52 82.6908 21.86 82.6908 21.06C82.6908 20.2467 82.4441 19.6 81.9508 19.12C81.4708 18.64 80.8308 18.4 80.0308 18.4C79.2174 18.4 78.5641 18.64 78.0708 19.12C77.5774 19.6 77.3308 20.2467 77.3308 21.06C77.3308 21.8733 77.5841 22.54 78.0908 23.06C78.5974 23.5667 79.2441 23.82 80.0308 23.82ZM92.012 15.08C93.6787 15.08 94.9587 15.48 95.852 16.28C96.7454 17.0667 97.192 18.26 97.192 19.86V26H94.272V24.66C93.6854 25.66 92.592 26.16 90.992 26.16C90.1654 26.16 89.4454 26.02 88.832 25.74C88.232 25.46 87.772 25.0733 87.452 24.58C87.132 24.0867 86.972 23.5267 86.972 22.9C86.972 21.9 87.3454 21.1133 88.092 20.54C88.852 19.9667 90.0187 19.68 91.592 19.68H94.072C94.072 19 93.8654 18.48 93.452 18.12C93.0387 17.7467 92.4187 17.56 91.592 17.56C91.0187 17.56 90.452 17.6533 89.892 17.84C89.3454 18.0133 88.8787 18.2533 88.492 18.56L87.372 16.38C87.9587 15.9667 88.6587 15.6467 89.472 15.42C90.2987 15.1933 91.1454 15.08 92.012 15.08ZM91.772 24.06C92.3054 24.06 92.7787 23.94 93.192 23.7C93.6054 23.4467 93.8987 23.08 94.072 22.6V21.5H91.932C90.652 21.5 90.012 21.92 90.012 22.76C90.012 23.16 90.1654 23.48 90.472 23.72C90.792 23.9467 91.2254 24.06 91.772 24.06ZM108.122 20.38C109.389 20.8067 110.022 21.66 110.022 22.94C110.022 23.9133 109.656 24.6667 108.922 25.2C108.189 25.7333 107.096 26 105.642 26H99.9023V15.24H105.402C106.749 15.24 107.802 15.4867 108.562 15.98C109.322 16.46 109.702 17.14 109.702 18.02C109.702 18.5533 109.562 19.0267 109.282 19.44C109.016 19.84 108.629 20.1533 108.122 20.38ZM102.762 19.66H105.122C106.216 19.66 106.762 19.2733 106.762 18.5C106.762 17.74 106.216 17.36 105.122 17.36H102.762V19.66ZM105.382 23.88C106.529 23.88 107.102 23.4867 107.102 22.7C107.102 22.2867 106.969 21.9867 106.702 21.8C106.436 21.6 106.016 21.5 105.442 21.5H102.762V23.88H105.382ZM112.344 15.24H115.444V21.64L120.684 15.24H123.544V26H120.444V19.6L115.224 26H112.344V15.24ZM135.583 17.8H131.943V26H128.843V17.8H125.203V15.24H135.583V17.8ZM143.066 18.68C144.466 18.6933 145.539 19.0133 146.286 19.64C147.033 20.2533 147.406 21.1267 147.406 22.26C147.406 23.4467 146.986 24.3733 146.146 25.04C145.319 25.6933 144.153 26.02 142.646 26.02L137.246 26V15.24H140.346V18.68H143.066ZM142.366 23.8C142.966 23.8133 143.426 23.6867 143.746 23.42C144.066 23.1533 144.226 22.7533 144.226 22.22C144.226 21.7 144.066 21.32 143.746 21.08C143.439 20.84 142.979 20.7133 142.366 20.7L140.346 20.68V23.8H142.366ZM53.7083 44.38C54.9749 44.8067 55.6083 45.66 55.6083 46.94C55.6083 47.9133 55.2416 48.6667 54.5083 49.2C53.7749 49.7333 52.6816 50 51.2283 50H45.4883V39.24H50.9883C52.3349 39.24 53.3883 39.4867 54.1483 39.98C54.9083 40.46 55.2883 41.14 55.2883 42.02C55.2883 42.5533 55.1483 43.0267 54.8683 43.44C54.6016 43.84 54.2149 44.1533 53.7083 44.38ZM48.3483 43.66H50.7083C51.8016 43.66 52.3483 43.2733 52.3483 42.5C52.3483 41.74 51.8016 41.36 50.7083 41.36H48.3483V43.66ZM50.9683 47.88C52.1149 47.88 52.6883 47.4867 52.6883 46.7C52.6883 46.2867 52.5549 45.9867 52.2883 45.8C52.0216 45.6 51.6016 45.5 51.0283 45.5H48.3483V47.88H50.9683ZM68.3338 45.92H66.7138V50H63.5938V39.24H66.7138V43.42H68.3938L71.3138 39.24H74.6338L70.8738 44.4L74.8938 50H71.2138L68.3338 45.92ZM81.1338 50.16C80.0004 50.16 78.9804 49.9267 78.0738 49.46C77.1804 48.98 76.4804 48.32 75.9738 47.48C75.4671 46.64 75.2138 45.6867 75.2138 44.62C75.2138 43.5533 75.4671 42.6 75.9738 41.76C76.4804 40.92 77.1804 40.2667 78.0738 39.8C78.9804 39.32 80.0004 39.08 81.1338 39.08C82.2671 39.08 83.2804 39.32 84.1738 39.8C85.0671 40.2667 85.7671 40.92 86.2738 41.76C86.7804 42.6 87.0338 43.5533 87.0338 44.62C87.0338 45.6867 86.7804 46.64 86.2738 47.48C85.7671 48.32 85.0671 48.98 84.1738 49.46C83.2804 49.9267 82.2671 50.16 81.1338 50.16ZM81.1338 47.6C81.9338 47.6 82.5871 47.3333 83.0938 46.8C83.6138 46.2533 83.8738 45.5267 83.8738 44.62C83.8738 43.7133 83.6138 42.9933 83.0938 42.46C82.5871 41.9133 81.9338 41.64 81.1338 41.64C80.3338 41.64 79.6738 41.9133 79.1538 42.46C78.6338 42.9933 78.3738 43.7133 78.3738 44.62C78.3738 45.5267 78.6338 46.2533 79.1538 46.8C79.6738 47.3333 80.3338 47.6 81.1338 47.6ZM95.5197 39.08C96.5197 39.08 97.4264 39.3133 98.2397 39.78C99.0664 40.2333 99.713 40.88 100.18 41.72C100.646 42.5467 100.88 43.5133 100.88 44.62C100.88 45.7267 100.646 46.7 100.18 47.54C99.713 48.3667 99.0664 49.0133 98.2397 49.48C97.4264 49.9333 96.5197 50.16 95.5197 50.16C94.1464 50.16 93.0664 49.7267 92.2797 48.86V53.88H89.1597V39.24H92.1397V40.48C92.913 39.5467 94.0397 39.08 95.5197 39.08ZM94.9797 47.6C95.7797 47.6 96.433 47.3333 96.9397 46.8C97.4597 46.2533 97.7197 45.5267 97.7197 44.62C97.7197 43.7133 97.4597 42.9933 96.9397 42.46C96.433 41.9133 95.7797 41.64 94.9797 41.64C94.1797 41.64 93.5197 41.9133 92.9997 42.46C92.493 42.9933 92.2397 43.7133 92.2397 44.62C92.2397 45.5267 92.493 46.2533 92.9997 46.8C93.5197 47.3333 94.1797 47.6 94.9797 47.6ZM109.851 44.4C110.491 44.6 110.984 44.9067 111.331 45.32C111.691 45.7333 111.871 46.2267 111.871 46.8C111.871 47.48 111.638 48.08 111.171 48.6C110.704 49.1067 110.064 49.5 109.251 49.78C108.438 50.06 107.518 50.2 106.491 50.2C105.651 50.2 104.824 50.1133 104.011 49.94C103.198 49.7667 102.444 49.5067 101.751 49.16L102.591 46.98C103.724 47.5267 104.978 47.8 106.351 47.8C107.084 47.8 107.658 47.6933 108.071 47.48C108.498 47.2533 108.711 46.94 108.711 46.54C108.711 46.1933 108.564 45.9333 108.271 45.76C107.978 45.5733 107.551 45.48 106.991 45.48H104.791V43.54H106.711C107.258 43.54 107.678 43.4533 107.971 43.28C108.264 43.1067 108.411 42.8533 108.411 42.52C108.411 42.1733 108.224 41.9067 107.851 41.72C107.491 41.5333 106.971 41.44 106.291 41.44C105.251 41.44 104.118 41.6867 102.891 42.18L102.131 40.02C103.624 39.3667 105.078 39.04 106.491 39.04C107.464 39.04 108.331 39.16 109.091 39.4C109.864 39.64 110.471 39.9933 110.911 40.46C111.351 40.9133 111.571 41.4467 111.571 42.06C111.571 42.5667 111.418 43.0267 111.111 43.44C110.804 43.84 110.384 44.16 109.851 44.4ZM114.141 39.24H117.241V45.64L122.481 39.24H125.341V50H122.241V43.6L117.021 50H114.141V39.24ZM128.34 39.24H131.44V43.44H136.12V39.24H139.24V50H136.12V45.98H131.44V50H128.34V39.24ZM153.007 39.24L148.147 50.66C147.653 51.9 147.04 52.7733 146.307 53.28C145.587 53.7867 144.713 54.04 143.687 54.04C143.127 54.04 142.573 53.9533 142.027 53.78C141.48 53.6067 141.033 53.3667 140.687 53.06L141.827 50.84C142.067 51.0533 142.34 51.22 142.647 51.34C142.967 51.46 143.28 51.52 143.587 51.52C144.013 51.52 144.36 51.4133 144.627 51.2C144.893 51 145.133 50.66 145.347 50.18L145.387 50.08L140.727 39.24H143.947L146.967 46.54L150.007 39.24H153.007Z" fill="white"/>
</svg>
